<?xml version="1.0" encoding="UTF-8"?>
<svg version="1.1" viewBox="0 0 1024 1024" width="1024" height="1024" xmlns="http://www.w3.org/2000/svg">
<path transform="translate(692,145)" d="m0 0 9 1 6 4 3 6 2 13 5-2 15-7 3-1h9l6 3 4 5 1 3v18l-1 8 8-3h13l8 3 6 7 1 2v10l-3 9-11 12-9 10-12 12-7 8-16 16-6 7-63 63-8 7-16 16 1 5 22 15 15 10 16 10 15 9 29 17 29 16 27 16 3 3v4l-2 1h-7l-12-3-27-1-47-3-70-2-24-1h-32l-12 9-19 9-18 6-12 3-11 8-11 9-9 9 1 4 12 12 5 8 2 6v9l-2 3-6 1-5-3-7-14-7-6-4-2h-15l-9 4-6 5-9 16-1 1h-10l-3-4 1-8 2-6-9-3v-7l4-8 9-10 8-4 10-2h21l8-7 9-7 1-2h-19l-19-3-9-3h-9l-27 18-11 7-5 6-9 15-5 1-7-2-1-1v-9l3-6 9-10 8-7 4-2 1-2-8 3-10 9-6 6-7 1-1-6 4-11 10-11 8-5 4-1 25-1 2-3-9-6-14-10-12-9-12-11-7-8-10-13-11-18-8-17-7-22-10-35-5-12-8-14-8-9-12-5-25-8-27-8-11-4-2-4 5-3 15-5 35-9 19-4 3-3 7-14 10-13 9-10 14-10 15-8 17-4h22l27 4h13l18-4 13-7 10-8 4 1 2 3v12l-5 12-6 10-4 6 8-1 12-10 5 1 1 2v14l-4 11-7 10-1 4 6 16 2 21 17 4 16 7 25 14 18 11 5 2 5-5 12-16 8-11 8-12 10-13 12-17 11-15 11-16 14-20 12-17 10-14 10-13 8-6z" fill="#2D2E3D"/>
<path transform="translate(372,201)" d="m0 0h15l18 3 12 3h11l13-4 7-1-1 5-9 8-3 3 1 6 7 6 11 1v5l-2 3v7l6 18 1 5v17l-1 2-12 4-11 6-13 13-6 7-7 12-5 14-2 13 1 15 5 16 7 16 10 14 9 11 7 7 13 10 15 8 9 4 13 4 6 1 46 2-3 3-17 8-16 4-16 3h-25l-17-3-24-8-16-8-16-10-15-13-13-13-9-13-9-16-7-19-10-41-7-20-9-16-9-12-6-7 1-21 6-18 6-10 11-12 11-10 10-6 19-5z" fill="#FBFBE5"/>
<path transform="translate(468,304)" d="m0 0h10l14 3 18 8 19 12 19 11 12 8 13 8 17 10v2l-91 1-3 3 1 5 6 5 4 2 7 1 87 1 17 1 15 11 13 8 10 5-1 2h-152v9l4 5 5 3h127l36 1 10 2 22 12 16 8 7 4v2l-21-2-70-1-36-1-43-3-30-3-24-1-13-2-13-4-16-8-11-9-13-12-8-11-7-14-4-16v-23l2-9 9-15 5-5 10-7 10-5z" fill="#F9F2B4"/>
<path transform="translate(372,201)" d="m0 0h15l18 3 12 3h11l13-4 7-1-1 5-9 8-3 3 1 6 7 6 11 1v5l-2 3v7l6 18 1 5v17l-1 2-12 4-11 6-8 8-2-1 9-9-16-9-16-8-18-6-4-1-3-3-2-1-3 9-2 5h-2v-2h-2l-2 5-1 1h-14l-8-3-6-7-4 1-30 1 1 9-3-3 1-21 6-18 6-10 11-12 11-10 10-6 19-5z" fill="#C3C1B1"/>
<path transform="translate(723,179)" d="m0 0h14l4 5v6l-6 10-11 13-9 11-7 7-9 11-11 13-12 14-9 10-11 12-7 8-12 14-9 10-9 11-15 16-2 3-4-2v-2l-4-2-3-2 2-5 8-11 7-8h2l2-5 7-8 3-5 5-5 8-10 9-11 7-9 9-12 10-13 7-9 5-6 6-8 8-11 13-15 1-2h2l2-5 4-5z" fill="#F5F4DF"/>
<path transform="translate(752,210)" d="m0 0h17l3 1-1 7-7 9-25 25-8 7-14 15-69 69h-2l-2 4-8 7-12 11h-4l-3-4 2-5 16-17 9-11 8-8 9-11 8-8 7-8 9-9 9-11 9-9 7-8 11-13 9-10 11-13 7-8z" fill="#C3C1B1"/>
<path transform="translate(694,163)" d="m0 0 6 1 2 2v8l-9 14-7 10-13 17-10 14-8 10-10 14-21 27-9 13h-2l-2 4-8 10-13 17-8 10-4 2-7-2 1-5 8-12 15-20 22-30 24-34 13-18 11-16 7-10 8-12 8-10z" fill="#C3C1B1"/>
<path transform="translate(723,179)" d="m0 0h14l4 5v6l-6 10-11 13-9 11-7 7-9 11-11 13-5 1v-3l3-8 5-6 1-2v-10l-1-2 3-9-4 3 2-5 11-13 7-9h2l2-5 4-5z" fill="#F8F0B5"/>
<path transform="translate(422,416)" d="m0 0 5 5 12 13 15 12 15 8 9 4 13 4 6 1 46 2-3 3-17 8-16 4-16 3h-25l-17-3v-1l11 1 9 1h21l-4-4-24-12-11-9-7-7-8-11-5-9-9-11z" fill="#C3C1B1"/>
<path transform="translate(353,247)" d="m0 0 9 2 8 7 4 7v6l-4 9-5 2-3 5-3 1h-10l-6-3-7-8-2-10 2-7 6-7 5-3z" fill="#2B2C3B"/>
<path transform="translate(317,306)" d="m0 0 3 3 8 16 7 23 6 27 6 18 5 11v2l5 1 2 5 4 2 4 7v2l3 1 2 5 7 7 11 5 1 5 4 2 5 3 3 4 5 1 7 2 3 3 8 2 1 4 19 4 10 4 5 1 1 4-2 1-15-2-22-8-16-8-15-10-14-12-13-13-9-13-9-16-7-19-10-41-7-20-6-11z" fill="#E9E9E3"/>
<path transform="translate(466,432)" d="m0 0 9 3 11 5 13 3 10 1 35 2 18 2 42 3 80 1 28 1 16 1 2 1v2l-21-2-70-1-36-1-43-3-30-3-24-1-13-2-13-4-14-7z" fill="#C3C1B1"/>
<path transform="translate(589,308)" d="m0 0 1 4 6 1-3 7-10 13-3 3-9-2 1-5 8-12 6-8z" fill="#F1F0DB"/>
<path transform="translate(608,321)" d="m0 0 2 1-9 10 1 1 5 1-3 6 1 2 2 2 6-5-2 4-7 7-2 3-4-2v-2l-4-2-3-2 2-5 8-11z" fill="#E8E2B3"/>
<path transform="translate(372,274)" d="m0 0 7 1 2 2v8l-2 1-1 3-3 2h-9l1-9 3-1z" fill="#FCFCFC"/>
<path transform="translate(723,179)" d="m0 0h14l4 5v6l-2 2-2-5-2-1-16-2-3 2 2-4z" fill="#C3C1B1"/>
<path transform="translate(302,286)" d="m0 0 7 1 2 5 3 1 5 9-2 4-4-4-8-11-3-3z" fill="#EDECE8"/>
<path transform="translate(336,354)" d="m0 0h2l1 3 3 1 1 4v19l-2-3-5-20z" fill="#FDFDFD"/>
<path transform="translate(328,326)" d="m0 0h4l3 6 1 7v10l-2-1-5-17z" fill="#FDFDFD"/>
<path transform="translate(414,537)" d="m0 0 1 4 1 3 8-1 5-2-5 9-10-2-1-1v-7z" fill="#C3C1B1"/>
<path transform="translate(645,278)" d="m0 0 4 1-2 4-3 2-3 5-5 3-2-1 7-9z" fill="#FCFCFC"/>
<path transform="translate(465,245)" d="m0 0 2 2 6 16 1 6v12h-1l-4-22-4-10z" fill="#C3C1B1"/>
<path transform="translate(428,329)" d="m0 0 1 3-4 8-2 10v26h-1l-1-6v-23l2-9 3-5z" fill="#C3C1B1"/>
<path transform="translate(429,331)" d="m0 0 3 2 1 5-2 3-4 2h-3l1-4z" fill="#FCFCE6"/>
<path transform="translate(478,473)" d="m0 0 6 2 6 4 4 2-10 1 1-4-7-1z" fill="#FCFCFC"/>
<path transform="translate(576,323)" d="m0 0 2 3-3 5 7 2-2 3-9-2 1-5z" fill="#DDDCC6"/>
<path transform="translate(437,320)" d="m0 0 4 3 1 4-2 4h-3l-1-4z" fill="#FCFCE6"/>
<path transform="translate(317,305)" d="m0 0 4 2 4 6 2 4v5l-3-4z" fill="#FDFDFD"/>
<path transform="translate(346,387)" d="m0 0 2 2 4 10v5l-3-4-4-9z" fill="#FDFDFD"/>
<path transform="translate(577,326)" d="m0 0 5 2-2 5-5-1-1-2z" fill="#FDF5B4"/>
<path transform="translate(442,314)" d="m0 0 2 1-6 5-7 8-2 1 2-5 5-5z" fill="#D3D0B7"/>
<path transform="translate(667,247)" d="m0 0 1 2-3 7-3 3-2-1 2-5z" fill="#E6E5DE"/>
<path transform="translate(356,511)" d="m0 0h1l1 7h6l-1 2-7 1-1-6z" fill="#C3C1B1"/>
<path transform="translate(697,208)" d="m0 0 1 2-2 5-6 4 2-5z" fill="#D8D7C5"/>
</svg>
